<?xml version="1.0" encoding="utf-8"?>
<!-- Generator: Adobe Illustrator 19.1.0, SVG Export Plug-In . SVG Version: 6.00 Build 0)  -->
<svg version="1.1" id="图层_1" xmlns="http://www.w3.org/2000/svg" xmlns:xlink="http://www.w3.org/1999/xlink" x="0px" y="0px"
	 viewBox="-247 370.9 100 100" style="enable-background:new -247 370.9 100 100;" xml:space="preserve" width="95" height="75">
<style type="text/css">
	.st0{fill:#FFFFFF;}
</style>
<path class="st0" d="M-199,375.8v21.7c-4.1,0.8-7.2,4-8,8h-40.2v-17.3c0-4,3-7.4,7-7.9L-199,375.8z">
<animate  fill="remove" restart="always" additive="replace" dur="1s" begin="0s" calcMode="linear" attributeName="opacity" values="1;0.5;1;1;1" accumulate="none" repeatCount="indefinite">
		</animate>
</path>
<path class="st0" d="M-199,417.1v21.7l-41.2-4.7c-4-0.5-7-3.8-7-7.9v-17.1h40.2C-206.2,413.2-203,416.3-199,417.1z">
<animate  fill="remove" restart="always" additive="replace" dur="1s" begin="250ms" calcMode="linear" attributeName="opacity" values="1;0.5;1;1;1" accumulate="none" repeatCount="indefinite">
		</animate>
</path>
<path class="st0" d="M-147.2,409.2v26.7c0,4.7-4.1,8.4-8.8,7.9l-39.4-4.5v-22.1c4-0.8,7.2-3.9,7.9-7.9L-147.2,409.2L-147.2,409.2z">
<animate  fill="remove" restart="always" additive="replace" dur="1s" begin="500ms" calcMode="linear" attributeName="opacity" values="1;0.5;1;1;1" accumulate="none" repeatCount="indefinite">
		</animate>
</path>
<path class="st0" d="M-147.2,378.8v26.8h-40.2c-0.7-4.1-3.9-7.3-8-8v-22.2l39.4-4.4C-151.3,370.4-147.2,374.1-147.2,378.8z">
<animate  fill="remove" restart="always" additive="replace" dur="1s" begin="750ms" calcMode="linear" attributeName="opacity" values="1;0.5;1;1;1" accumulate="none" repeatCount="indefinite">
		</animate>
</path>
<path d="M-147.2,405.6v3.6h-40.2c-0.8,4-3.9,7.2-7.9,7.9v22.2l-3.6-0.4v-21.7c-4-0.8-7.2-3.9-7.9-7.9h-40.4v-3.6h40.2
	c0.7-4.1,3.9-7.3,8-8V376l3.6-0.4v22.2c4.1,0.8,7.2,4,8,8h40.2V405.6L-147.2,405.6z"/>
<g>
	<path class="st0" d="M-242.8,458.7h-11V448h11v1.2h-2.7c0.3,0.4,0.5,0.7,0.7,1l-0.4,0.2h1.9v1.1h-1.9v0.7h1.8v1h-1.8v0.7h1.8v1
		h-1.8v0.7h2v1.1h-4.8v0.2h-1.4v-4c-0.2,0.2-0.3,0.4-0.5,0.6c-0.2-0.3-0.3-0.7-0.6-1l-0.5,0.6c-0.4-0.3-0.8-0.7-1.3-1.1v5.2h9.5
		V458.7z M-251.6,451.1c0.6,0.4,1,0.7,1.3,0.9c0.6-0.8,1.1-1.8,1.5-2.8l1.3,0.4c-0.1,0.3-0.3,0.6-0.4,0.9h1.7
		c-0.2-0.3-0.4-0.6-0.6-0.9l0.6-0.3h-4.7c0.5,0.4,0.9,0.7,1.3,1l-0.9,1c-0.4-0.4-0.9-0.8-1.4-1.2l0.7-0.8h-1.1v2.7L-251.6,451.1z
		 M-251.4,453.5c0.3,0.1,0.7,0.3,1.3,0.5c-0.2,1-0.5,2.1-0.8,3.4c-0.5-0.1-0.9-0.3-1.3-0.4C-251.8,455.9-251.6,454.8-251.4,453.5z
		 M-248.1,452.3h1.5v-0.7h-1.5V452.3z M-248.1,454.1h1.5v-0.7h-1.5V454.1z M-248.1,455.8h1.5v-0.7h-1.5V455.8z"/>
	<path class="st0" d="M-241.2,454.8l1.5,0.5c-0.4,1.1-0.8,2.1-1.1,3l-1.4-0.6C-241.9,456.7-241.5,455.7-241.2,454.8z M-241.2,448
		h9.6v6h-4.5c0.5,0.5,1,1,1.5,1.4l-1.2,1c-0.5-0.7-1.1-1.3-1.6-1.8l0.8-0.7h-4.5L-241.2,448L-241.2,448z M-239.6,450.3h2.4v-1h-2.4
		V450.3z M-239.6,452.7h2.4v-1h-2.4V452.7z M-234.5,455.8c0.6,0.3,1.2,0.5,1.6,0.7c-0.3,1.1-0.6,1.8-0.9,2s-0.8,0.4-1.2,0.4h-2.6
		c-1.2,0-1.8-0.5-1.8-1.6v-2.6h1.5v2.2c0,0.5,0.2,0.7,0.7,0.7h1.5c0.3,0,0.5,0,0.6-0.1s0.3-0.2,0.3-0.4S-234.6,456.3-234.5,455.8z
		 M-233.3,449.3h-2.4v1h2.4V449.3z M-233.3,452.7v-1h-2.4v1H-233.3z M-231.7,454.6c0.4,0.9,0.7,1.8,1.1,2.8l-1.5,0.6
		c-0.4-1.1-0.7-2-1.1-2.8L-231.7,454.6z"/>
	<path class="st0" d="M-225,460.5v-13h1.2v13H-225z"/>
	<path class="st0" d="M-212.7,457.2c-0.5,0.3-1.1,0.4-1.9,0.4c-1,0-1.8-0.3-2.4-0.9s-0.9-1.4-0.9-2.3c0-1.1,0.3-2,1-2.6s1.5-1,2.6-1
		c0.7,0,1.3,0.1,1.6,0.3v1.6c-0.4-0.3-0.9-0.5-1.4-0.5c-0.6,0-1,0.2-1.4,0.5s-0.5,0.8-0.5,1.4s0.2,1.1,0.5,1.4s0.8,0.5,1.4,0.5
		c0.5,0,1-0.2,1.5-0.5L-212.7,457.2L-212.7,457.2z"/>
	<path class="st0" d="M-205.3,451l-2.7,7.1c-0.6,1.6-1.6,2.5-2.8,2.5c-0.5,0-0.9-0.1-1.1-0.2v-1.5c0.3,0.1,0.5,0.2,0.8,0.2
		c0.5,0,0.9-0.3,1.1-0.8l0.4-0.8l-2.6-6.5h2.1l1.3,4.1c0.1,0.2,0.1,0.5,0.2,0.8l0,0c0-0.2,0.1-0.5,0.2-0.8l1.3-4.1L-205.3,451
		L-205.3,451z"/>
	<path class="st0" d="M-202.6,456.7v0.8h-1.9v-9.6h1.9v4.1l0,0c0.5-0.8,1.2-1.1,2.1-1.1c0.8,0,1.5,0.3,1.9,0.9s0.7,1.4,0.7,2.4
		c0,1.1-0.3,1.9-0.8,2.6s-1.2,1-2.1,1C-201.6,457.6-202.2,457.3-202.6,456.7L-202.6,456.7z M-202.6,454.7c0,0.4,0.1,0.8,0.4,1.1
		s0.6,0.4,1,0.4c0.5,0,0.8-0.2,1.1-0.6s0.4-0.9,0.4-1.6c0-0.6-0.1-1-0.4-1.3s-0.6-0.5-1-0.5s-0.8,0.2-1,0.5s-0.4,0.7-0.4,1.2
		L-202.6,454.7L-202.6,454.7z"/>
	<path class="st0" d="M-190.8,454.8h-4.3c0.1,1,0.7,1.5,1.8,1.5c0.7,0,1.3-0.2,1.9-0.5v1.4c-0.6,0.3-1.4,0.5-2.3,0.5
		c-1,0-1.8-0.3-2.4-0.9s-0.9-1.4-0.9-2.4s0.3-1.9,0.9-2.5s1.4-1,2.3-1c0.9,0,1.6,0.3,2.2,0.8s0.8,1.3,0.8,2.3V454.8z M-192.5,453.6
		c0-1-0.4-1.5-1.2-1.5c-0.3,0-0.6,0.1-0.9,0.4s-0.4,0.6-0.5,1.1H-192.5z"/>
	<path class="st0" d="M-185.4,452.7c-0.2-0.1-0.5-0.2-0.8-0.2c-0.4,0-0.8,0.2-1,0.5s-0.4,0.8-0.4,1.4v3.1h-1.9V451h1.9v1.2l0,0
		c0.3-0.9,0.9-1.3,1.7-1.3c0.2,0,0.4,0,0.5,0.1V452.7z"/>
	<path class="st0" d="M-174.7,451l-1.9,6.5h-2l-1-3.9c-0.1-0.3-0.1-0.5-0.1-0.8l0,0c0,0.3-0.1,0.6-0.1,0.8l-1.1,3.9h-2l-1.8-6.5h1.9
		l0.9,4.3c0,0.2,0.1,0.4,0.1,0.7l0,0c0-0.3,0.1-0.5,0.1-0.7l1.2-4.3h1.8l1,4.3c0,0.1,0.1,0.4,0.1,0.7l0,0c0-0.2,0-0.4,0.1-0.7
		l0.9-4.3H-174.7z"/>
	<path class="st0" d="M-173.9,448.9c0-0.3,0.1-0.5,0.3-0.7s0.5-0.3,0.8-0.3s0.6,0.1,0.8,0.3s0.3,0.4,0.3,0.7c0,0.3-0.1,0.5-0.3,0.7
		s-0.5,0.3-0.8,0.3s-0.6-0.1-0.8-0.3S-173.9,449.2-173.9,448.9z M-173.8,457.5V451h1.9v6.5H-173.8z"/>
	<path class="st0" d="M-170.4,455.7c0.6,0.4,1.3,0.6,1.9,0.6c0.8,0,1.2-0.2,1.2-0.6c0-0.3-0.3-0.5-1-0.7c-0.8-0.3-1.4-0.5-1.7-0.8
		s-0.5-0.7-0.5-1.2c0-0.6,0.3-1.1,0.8-1.5s1.2-0.5,2-0.5c0.6,0,1.2,0.1,1.7,0.3v1.5c-0.5-0.3-1.1-0.4-1.7-0.4
		c-0.3,0-0.5,0.1-0.7,0.2s-0.3,0.2-0.3,0.4c0,0.3,0.3,0.5,0.8,0.7c0.6,0.2,1,0.4,1.3,0.5s0.5,0.4,0.7,0.6s0.2,0.6,0.2,0.9
		c0,0.7-0.3,1.2-0.8,1.6s-1.3,0.6-2.1,0.6c-0.7,0-1.4-0.1-2-0.3v-1.9H-170.4z"/>
	<path class="st0" d="M-158,457.5h-1.9v-0.9l0,0c-0.5,0.7-1.1,1.1-2,1.1c-0.8,0-1.5-0.3-2-0.9s-0.7-1.4-0.7-2.4
		c0-1.1,0.3-1.9,0.8-2.6s1.3-1,2.1-1s1.4,0.3,1.8,0.9l0,0v-3.9h1.9L-158,457.5L-158,457.5z M-159.9,453.8c0-0.4-0.1-0.8-0.4-1.1
		s-0.6-0.4-1-0.4c-0.5,0-0.8,0.2-1.1,0.5s-0.4,0.9-0.4,1.5s0.1,1.1,0.4,1.4s0.6,0.5,1,0.5s0.8-0.2,1-0.5s0.4-0.8,0.4-1.3
		L-159.9,453.8L-159.9,453.8z"/>
	<path class="st0" d="M-156.7,454.3c0-1.1,0.3-1.9,1-2.5s1.5-0.9,2.6-0.9c1,0,1.9,0.3,2.5,0.9s0.9,1.4,0.9,2.4
		c0,1.1-0.3,1.9-0.9,2.5s-1.5,0.9-2.6,0.9s-1.9-0.3-2.5-0.9S-156.7,455.3-156.7,454.3z M-154.8,454.2c0,1.3,0.5,1.9,1.6,1.9
		c1,0,1.5-0.7,1.5-2s-0.5-1.9-1.5-1.9c-0.5,0-0.9,0.2-1.2,0.5S-154.8,453.6-154.8,454.2z"/>
	<path class="st0" d="M-138.3,457.5h-1.9v-3.7c0-1-0.4-1.5-1.1-1.5c-0.3,0-0.6,0.2-0.8,0.5s-0.3,0.7-0.3,1.1v3.6h-1.9v-3.7
		c0-1-0.4-1.4-1.1-1.4c-0.4,0-0.6,0.1-0.9,0.4s-0.3,0.7-0.3,1.1v3.6h-1.9V451h1.9v1l0,0c0.2-0.4,0.5-0.7,0.9-0.9s0.8-0.3,1.2-0.3
		c0.9,0,1.5,0.4,1.9,1.2c0.5-0.8,1.2-1.2,2.2-1.2c1.4,0,2.1,0.9,2.1,2.6L-138.3,457.5L-138.3,457.5z"/>
	
		<animate  fill="remove" restart="always" additive="replace" dur="1s" begin="750ms" calcMode="linear" attributeName="opacity" values="1;0.2;1" accumulate="none" repeatCount="indefinite">
		</animate>
</g>
</svg>
